<svg xmlns="http://www.w3.org/2000/svg" viewBox="0 0 1600 2560" width="1600" height="2560" role="img" aria-label="Live coaching">
  <defs>
    <linearGradient id="bg" x1="0" y1="0" x2="0" y2="1">
      <stop offset="0" stop-color="#f6f6fb"/><stop offset="1" stop-color="#eef0f8"/>
    </linearGradient>
    <linearGradient id="hero" x1="0" y1="0" x2="1" y2="1">
      <stop offset="0" stop-color="#5b5bd6"/><stop offset="1" stop-color="#3a3aa3"/>
    </linearGradient>
  </defs>
  <rect width="1600" height="2560" fill="url(#bg)"/>
  <!-- status bar -->
  <text x="112" y="128" font-family="-apple-system,Segoe UI,Roboto,sans-serif" font-size="56" font-weight="700" fill="#1d1d23">9:41</text>
  <rect x="1312" y="90" width="176" height="35.199999999999996" rx="12.8" fill="#1d1d23" opacity="0.55"/>
  <!-- caption / page title -->
  <text x="112" y="269" font-family="-apple-system,Segoe UI,Roboto,sans-serif" font-size="88" font-weight="800" fill="#1d1d23">Live coaching</text>
  <!-- hero -->
  <rect x="112" y="333" width="1376" height="563" rx="112" fill="url(#hero)"/>
  <circle cx="1376" cy="558.2" r="281.5" fill="#ffffff" opacity="0.10"/>
  <rect x="224" y="490.64" width="688" height="78.82000000000001" rx="8" fill="#ffffff" opacity="0.9"/>
  <rect x="224" y="614.5" width="467.84000000000003" height="56.300000000000004" rx="8" fill="#ffffff" opacity="0.55"/>
  <rect x="224" y="704.58" width="844.5" height="123.86" rx="67.56" fill="#ff8a3d"/>
  
      <rect x="112" y="998" width="1376" height="192" rx="54" fill="#ffffff" stroke="#ececf2"/>
      <circle cx="217.60000000000002" cy="1094" r="57.599999999999994" fill="#5b5bd6" opacity="0.18"/>
      <rect x="313.6" y="1055.6" width="412.8" height="30.72" rx="6" fill="#d7d7e2"/>
      <rect x="313.6" y="1109.36" width="619.2" height="23.04" rx="6" fill="#e9e9f1"/>
      <rect x="112" y="1254" width="1376" height="192" rx="54" fill="#ffffff" stroke="#ececf2"/>
      <circle cx="217.60000000000002" cy="1350" r="57.599999999999994" fill="#5b5bd6" opacity="0.18"/>
      <rect x="313.6" y="1311.6" width="584.8" height="30.72" rx="6" fill="#d7d7e2"/>
      <rect x="313.6" y="1365.36" width="619.2" height="23.04" rx="6" fill="#e9e9f1"/>
      <rect x="112" y="1510" width="1376" height="192" rx="54" fill="#ffffff" stroke="#ececf2"/>
      <circle cx="217.60000000000002" cy="1606" r="57.599999999999994" fill="#5b5bd6" opacity="0.18"/>
      <rect x="313.6" y="1567.6" width="756.8000000000001" height="30.72" rx="6" fill="#d7d7e2"/>
      <rect x="313.6" y="1621.36" width="619.2" height="23.04" rx="6" fill="#e9e9f1"/>
      <rect x="112" y="1766" width="1376" height="192" rx="54" fill="#ffffff" stroke="#ececf2"/>
      <circle cx="217.60000000000002" cy="1862" r="57.599999999999994" fill="#5b5bd6" opacity="0.18"/>
      <rect x="313.6" y="1823.6" width="412.8" height="30.72" rx="6" fill="#d7d7e2"/>
      <rect x="313.6" y="1877.36" width="619.2" height="23.04" rx="6" fill="#e9e9f1"/>
  <!-- pager dots -->
  <g><circle cx="736" cy="2406" r="14.399999999999999" fill="#8a8a99" opacity="0.5"/><circle cx="800" cy="2406" r="20.8" fill="#5b5bd6" opacity="1"/><circle cx="864" cy="2406" r="14.399999999999999" fill="#8a8a99" opacity="0.5"/></g>
  <!-- watermark -->
  <text x="800" y="2496" text-anchor="middle" font-family="-apple-system,Segoe UI,Roboto,sans-serif" font-size="42" font-weight="700" fill="#8a8a99" opacity="0.7">DEMO · sample screenshot</text>
</svg>
